<?xml version="1.0" encoding="UTF-8"?>
<svg xmlns="http://www.w3.org/2000/svg" xmlns:xlink="http://www.w3.org/1999/xlink" width="512pt" height="704pt" viewBox="0 0 512 704" version="1.1">
<g id="surface1">
<path style=" stroke:none;fill-rule:nonzero;fill:rgb(52.156863%,72.54902%,8.627451%);fill-opacity:1;" d="M 100.734375 685.714844 C 111.210938 685.714844 118.628906 681.425781 124.824219 674.925781 L 131.902344 681.289062 C 124.234375 689.859375 114.917969 695.621094 100.433594 695.621094 C 79.433594 695.621094 62.308594 679.503906 62.308594 655.707031 C 62.308594 633.546875 77.828125 615.800781 98.96875 615.800781 C 121.558594 615.800781 134.574219 633.832031 134.574219 656.300781 C 134.574219 657.339844 134.574219 658.519531 134.433594 659.847656 L 73.824219 659.847656 C 75.449219 676.414062 87.28125 685.714844 100.734375 685.714844 Z M 123.066406 651.425781 C 121.875 637.53125 113.890625 625.40625 98.652344 625.40625 C 85.378906 625.40625 75.3125 636.503906 73.824219 651.425781 Z M 123.066406 651.425781 "/>
<path style=" stroke:none;fill-rule:nonzero;fill:rgb(25.490196%,16.078431%,11.372549%);fill-opacity:1;" d="M 193.25 657.339844 L 168.125 657.339844 L 168.125 693.851562 L 156.453125 693.851562 L 156.453125 590.378906 L 195.191406 590.378906 C 218.53125 590.378906 233.910156 602.804688 233.910156 623.351562 C 233.910156 645.816406 215.28125 657.339844 193.25 657.339844 Z M 194.277344 601.175781 L 168.125 601.175781 L 168.125 646.691406 L 193.707031 646.691406 C 210.839844 646.691406 222.078125 637.535156 222.078125 623.785156 C 222.078125 608.863281 211 601.175781 194.277344 601.175781 Z M 339.71875 649.640625 C 339.71875 679.800781 322.441406 695.472656 296.5625 695.472656 C 271 695.472656 253.566406 679.804688 253.566406 650.539062 L 253.566406 590.378906 L 265.230469 590.378906 L 265.230469 649.800781 C 265.230469 672.113281 277.0625 684.683594 296.875 684.683594 C 315.9375 684.683594 328.066406 673.144531 328.066406 650.539062 L 328.066406 590.378906 L 339.71875 590.378906 Z M 443.9375 616.253906 C 443.9375 629.847656 435.65625 636.792969 427.53125 640.347656 C 439.796875 644.03125 449.6875 651.125 449.6875 665.476562 C 449.6875 683.34375 434.765625 693.851562 412.15625 693.851562 L 365.453125 693.851562 L 365.453125 590.378906 L 410.234375 590.378906 C 430.625 590.378906 443.9375 600.421875 443.9375 616.253906 Z M 432.113281 617.878906 C 432.113281 607.527344 423.96875 600.875 409.207031 600.875 L 376.96875 600.875 L 376.96875 636.503906 L 408.3125 636.503906 C 422.34375 636.503906 432.113281 630.144531 432.113281 617.878906 Z M 437.878906 664.734375 C 437.878906 653.347656 428.40625 646.847656 410.375 646.847656 L 376.96875 646.847656 L 376.96875 683.347656 L 412.457031 683.347656 C 428.128906 683.34375 437.878906 676.414062 437.878906 664.734375 Z M 437.878906 664.734375 "/>
<path style=" stroke:none;fill-rule:nonzero;fill:rgb(52.156863%,72.54902%,8.627451%);fill-opacity:1;" d="M 255.992188 417.300781 L 98.183594 259.476562 L 255.992188 101.671875 L 308.601562 154.273438 L 203.386719 259.476562 L 255.992188 312.082031 L 413.800781 154.28125 L 276.328125 16.808594 C 265.105469 5.574219 246.894531 5.574219 235.660156 16.808594 L 13.316406 239.15625 C 2.089844 250.378906 2.089844 268.589844 13.316406 279.824219 L 235.664062 502.164062 C 246.898438 513.398438 265.105469 513.398438 276.332031 502.164062 L 498.679688 279.824219 C 509.90625 268.589844 509.90625 250.378906 498.679688 239.15625 L 466.402344 206.886719 Z M 255.992188 417.300781 "/>
</g>
</svg>
